<?xml version="1.0" encoding="UTF-8"?>
<!DOCTYPE svg PUBLIC "-//W3C//DTD SVG 1.1//EN" "http://www.w3.org/Graphics/SVG/1.1/DTD/svg11.dtd">
<!-- Creator: CorelDRAW X8 -->
<svg xmlns="http://www.w3.org/2000/svg" xml:space="preserve" width="1.33333in" height="0.379992in" version="1.1" style="shape-rendering:geometricPrecision; text-rendering:geometricPrecision; image-rendering:optimizeQuality; fill-rule:evenodd; clip-rule:evenodd"
viewBox="0 0 1333 380"
 xmlns:xlink="http://www.w3.org/1999/xlink">
 <defs>
  <style type="text/css">
   <![CDATA[
    .fil0 {fill:#FDDEDE}
   ]]>
  </style>
 </defs>
 <g id="Layer_x0020_1">
  <metadata id="CorelCorpID_0Corel-Layer"/>
  <path class="fil0" d="M16 117c0,48 -16,39 -16,73 0,34 16,27 16,73 0,46 37,84 82,84l16 0c72,0 60,33 110,33 51,0 36,-33 111,-33 72,0 60,33 110,33 51,0 37,-33 111,-33 72,0 60,33 111,33 50,0 36,-33 110,-33 72,0 60,33 111,33 50,0 36,-33 110,-33 73,0 60,33 111,33 50,0 36,-33 111,-33l16 0c44,0 81,-38 81,-84 1,-46 16,-39 16,-73 0,-34 -15,-25 -16,-73 0,-46 -37,-84 -81,-84l-16 0c-75,0 -61,-33 -111,-33 -51,0 -38,33 -111,33 -74,0 -60,-33 -110,-33 -51,0 -39,33 -111,33 -74,0 -60,-33 -110,-33 -51,0 -39,33 -111,33 -74,0 -60,-33 -111,-33 -50,0 -38,33 -110,33 -75,0 -60,-33 -111,-33 -50,0 -38,33 -110,33l-16 0c-45,0 -82,38 -82,84z"/>
 </g>
</svg>
