<svg width="1440" height="114" viewBox="0 0 1440 114" fill="none" xmlns="http://www.w3.org/2000/svg">
<path fill-rule="evenodd" clip-rule="evenodd" d="M373.8 99.9C398.4 99.9 394.2 113.1 411.3 113.1C428.4 113.1 423.6 99.9 448.8 99.9C473.1 99.9 468.9 113.1 486 113.1C503.1 113.1 498.3 99.9 523.5 99.9C547.8 99.9 543.9 113.1 560.7 113.1C577.8 113.1 573 99.9 598.2 99.9C622.8 99.9 618.6 113.1 635.7 113.1C652.5 113.1 648 99.9 673.2 99.9C697.5 99.9 693.3 113.1 710.4 113.1C727.5 113.1 722.7 99.9 747.9 99.9C772.2 99.9 768.3 113.1 785.1 113.1C802.2 113.1 797.4 99.9 822.6 99.9C846.9 99.9 843 113.1 860.1 113.1C876.9 113.1 872.1 99.9 897.3 99.9C921.9 99.9 917.7 113.1 934.8 113.1C951.9 113.1 947.1 99.9 972.3 99.9C996.6 99.9 992.4 113.1 1009.5 113.1C1026.6 113.1 1021.8 99.9 1047 99.9C1071.3 99.9 1067.4 113.1 1084.2 113.1C1101.3 113.1 1096.5 99.9 1121.7 99.9C1146.3 99.9 1142.1 113.1 1159.2 113.1C1176 113.1 1171.5 99.9 1196.4 99.9C1221 99.9 1216.8 113.1 1233.9 113.1C1251 113.1 1246.2 99.9 1271.4 99.9C1295.7 99.9 1291.8 113.1 1308.6 113.1C1325.7 113.1 1320.9 99.9 1346.1 99.9C1370.4 99.9 1366.5 113.1 1383.6 113.1C1400.4 113.1 1395.6 99.9 1420.8 99.9C1435.2 99.9 1431 99.9 1440 99.9V0H0V99.9C24.3 99.9 20.4 113.1 37.2 113.1C54.3 113.1 49.5 99.9 74.7 99.9C99.3 99.9 95.1 113.1 112.2 113.1C129 113.1 124.5 99.9 149.7 99.9C174 99.9 169.8 113.1 186.9 113.1C204 113.1 199.2 99.9 224.4 99.9C248.7 99.9 244.8 113.1 261.6 113.1C278.7 113.1 273.9 99.9 299.1 99.9C323.4 99.9 319.5 113.1 336.6 113.1C353.4 113.1 348.6 99.9 373.8 99.9Z" fill="#FDD6D6"/>
</svg>
