<svg width="91" height="157" viewBox="0 0 91 157" fill="none" xmlns="http://www.w3.org/2000/svg">
<path d="M31.6 47.8C31.8667 47.7333 32.2667 47.7 32.8 47.7C33.3333 47.6333 33.8333 47.6667 34.3 47.8C34.8333 47.8667 35.2667 48.0333 35.6 48.3C36 48.5 36.2333 48.7667 36.3 49.1C36.4333 49.9 36.3 50.6333 35.9 51.3C35.5667 51.9 34.9333 52.4333 34 52.9C31.4667 54.1 28.8333 55.4667 26.1 57C23.3667 58.4667 21.0333 59.8 19.1 61C20.3 61.8 21.6667 62.7 23.2 63.7C24.8 64.7 26.4333 65.7667 28.1 66.9C29.7667 67.9667 31.4333 69.1333 33.1 70.4C34.7667 71.6 36.3333 72.8 37.8 74C39.1333 75.1333 39.3667 76.1667 38.5 77.1C38.1 77.5667 37.4333 77.9 36.5 78.1C35.6333 78.3 34.8 78.2 34 77.8C32.5333 77.0667 30.9333 76.2 29.2 75.2C27.4667 74.1333 25.7 73.0667 23.9 72C22.1 70.8667 20.3333 69.7667 18.6 68.7C16.9333 67.5667 15.4 66.5333 14 65.6C14.2667 67.9333 14.5 70.2667 14.7 72.6C14.9667 74.9333 15.2 77.2667 15.4 79.6C15.8 80.8667 15.7667 81.9 15.3 82.7C14.8333 83.5 14.0667 83.8667 13 83.8C11.8667 83.6 11.0333 83.1667 10.5 82.5C9.96667 81.7667 9.56667 80.8333 9.3 79.7C8.9 76.9667 8.43333 73.7333 7.9 70C7.43333 66.2667 6.93333 62.4 6.4 58.4C5.86667 54.4 5.33333 50.5 4.8 46.7C4.33333 42.9 3.9 39.5333 3.5 36.6C3.36667 35.6667 3.26667 34.6667 3.2 33.6C3.2 32.4667 3.56667 31.7333 4.3 31.4C5.3 31 6.33333 31.2333 7.4 32.1C8.46667 32.9 9.26667 34.1333 9.8 35.8C10.3333 38.8667 10.8667 42.2 11.4 45.8C11.9333 49.4 12.4667 53.2 13 57.2C14.3333 56.4 15.8667 55.5333 17.6 54.6C19.4 53.6 21.1667 52.6667 22.9 51.8C24.7 50.8667 26.3667 50.0333 27.9 49.3C29.4333 48.5667 30.6667 48.0667 31.6 47.8ZM58.925 57C56.325 58.5333 53.525 59.7333 50.525 60.6C47.525 61.4 44.2917 61.8 40.825 61.8C40.9583 64.1333 41.625 66 42.825 67.4C44.025 68.7333 45.525 69.5333 47.325 69.8C48.3917 69.9333 49.4583 69.9 50.525 69.7C51.6583 69.5 52.6917 69.2 53.625 68.8C54.625 68.3333 55.525 67.8333 56.325 67.3C57.125 66.7667 57.825 66.2333 58.425 65.7C59.025 65.1667 59.6583 64.8333 60.325 64.7C60.9917 64.5 61.4917 64.4667 61.825 64.6C62.7583 64.9333 63.0917 65.9333 62.825 67.6C61.7583 69.7333 60.225 71.5667 58.225 73.1C56.225 74.5667 53.9917 75.5 51.525 75.9C49.3917 76.3 47.1917 76.2 44.925 75.6C42.6583 75 40.625 73.8333 38.825 72.1C37.2917 70.5667 36.125 68.7667 35.325 66.7C34.525 64.6333 34.025 62.5 33.825 60.3C33.625 58.2333 33.7917 56.2667 34.325 54.4C34.925 52.5333 35.825 50.9 37.025 49.5C38.225 48.0333 39.725 46.8333 41.525 45.9C43.325 44.9667 45.425 44.4333 47.825 44.3C50.6917 44.1 53.2917 44.6333 55.625 45.9C57.9583 47.1667 59.5917 48.9333 60.525 51.2C61.0583 52.4667 61.1917 53.5667 60.925 54.5C60.725 55.4333 60.0583 56.2667 58.925 57ZM47.425 50.2C46.7583 50.3333 46.025 50.5667 45.225 50.9C44.4917 51.2333 43.7917 51.6667 43.125 52.2C42.525 52.6667 41.9583 53.2333 41.425 53.9C40.9583 54.5 40.6917 55.2 40.625 56C41.7583 56 42.9917 55.9 44.325 55.7C45.725 55.5 47.0583 55.2667 48.325 55C49.6583 54.6667 50.8583 54.3 51.925 53.9C53.0583 53.5 53.9917 53.0667 54.725 52.6C54.1917 51.3333 53.1917 50.5667 51.725 50.3C50.325 49.9667 48.8917 49.9333 47.425 50.2ZM83.9836 57C81.3836 58.5333 78.5836 59.7333 75.5836 60.6C72.5836 61.4 69.3503 61.8 65.8836 61.8C66.0169 64.1333 66.6836 66 67.8836 67.4C69.0836 68.7333 70.5836 69.5333 72.3836 69.8C73.4503 69.9333 74.5169 69.9 75.5836 69.7C76.7169 69.5 77.7503 69.2 78.6836 68.8C79.6836 68.3333 80.5836 67.8333 81.3836 67.3C82.1836 66.7667 82.8836 66.2333 83.4836 65.7C84.0836 65.1667 84.7169 64.8333 85.3836 64.7C86.0503 64.5 86.5503 64.4667 86.8836 64.6C87.8169 64.9333 88.1503 65.9333 87.8836 67.6C86.8169 69.7333 85.2836 71.5667 83.2836 73.1C81.2836 74.5667 79.0503 75.5 76.5836 75.9C74.4503 76.3 72.2503 76.2 69.9836 75.6C67.7169 75 65.6836 73.8333 63.8836 72.1C62.3503 70.5667 61.1836 68.7667 60.3836 66.7C59.5836 64.6333 59.0836 62.5 58.8836 60.3C58.6836 58.2333 58.8503 56.2667 59.3836 54.4C59.9836 52.5333 60.8836 50.9 62.0836 49.5C63.2836 48.0333 64.7836 46.8333 66.5836 45.9C68.3836 44.9667 70.4836 44.4333 72.8836 44.3C75.7503 44.1 78.3503 44.6333 80.6836 45.9C83.0169 47.1667 84.6503 48.9333 85.5836 51.2C86.1169 52.4667 86.2503 53.5667 85.9836 54.5C85.7836 55.4333 85.1169 56.2667 83.9836 57ZM72.4836 50.2C71.8169 50.3333 71.0836 50.5667 70.2836 50.9C69.5503 51.2333 68.8503 51.6667 68.1836 52.2C67.5836 52.6667 67.0169 53.2333 66.4836 53.9C66.0169 54.5 65.7503 55.2 65.6836 56C66.8169 56 68.0503 55.9 69.3836 55.7C70.7836 55.5 72.1169 55.2667 73.3836 55C74.7169 54.6667 75.9169 54.3 76.9836 53.9C78.1169 53.5 79.0503 53.0667 79.7836 52.6C79.2503 51.3333 78.2503 50.5667 76.7836 50.3C75.3836 49.9667 73.9503 49.9333 72.4836 50.2Z" fill="#F1C550"/>
<path d="M57.6 79.8C57.8667 79.7333 58.2667 79.7 58.8 79.7C59.3333 79.6333 59.8333 79.6667 60.3 79.8C60.8333 79.8667 61.2667 80.0333 61.6 80.3C62 80.5 62.2333 80.7667 62.3 81.1C62.4333 81.9 62.3 82.6333 61.9 83.3C61.5667 83.9 60.9333 84.4333 60 84.9C57.4667 86.1 54.8333 87.4667 52.1 89C49.3667 90.4667 47.0333 91.8 45.1 93C46.3 93.8 47.6667 94.7 49.2 95.7C50.8 96.7 52.4333 97.7667 54.1 98.9C55.7667 99.9667 57.4333 101.133 59.1 102.4C60.7667 103.6 62.3333 104.8 63.8 106C65.1333 107.133 65.3667 108.167 64.5 109.1C64.1 109.567 63.4333 109.9 62.5 110.1C61.6333 110.3 60.8 110.2 60 109.8C58.5333 109.067 56.9333 108.2 55.2 107.2C53.4667 106.133 51.7 105.067 49.9 104C48.1 102.867 46.3333 101.767 44.6 100.7C42.9333 99.5667 41.4 98.5333 40 97.6C40.2667 99.9333 40.5 102.267 40.7 104.6C40.9667 106.933 41.2 109.267 41.4 111.6C41.8 112.867 41.7667 113.9 41.3 114.7C40.8333 115.5 40.0667 115.867 39 115.8C37.8667 115.6 37.0333 115.167 36.5 114.5C35.9667 113.767 35.5667 112.833 35.3 111.7C34.9 108.967 34.4333 105.733 33.9 102C33.4333 98.2667 32.9333 94.4 32.4 90.4C31.8667 86.4 31.3333 82.5 30.8 78.7C30.3333 74.9 29.9 71.5333 29.5 68.6C29.3667 67.6667 29.2667 66.6667 29.2 65.6C29.2 64.4667 29.5667 63.7333 30.3 63.4C31.3 63 32.3333 63.2333 33.4 64.1C34.4667 64.9 35.2667 66.1333 35.8 67.8C36.3333 70.8667 36.8667 74.2 37.4 77.8C37.9333 81.4 38.4667 85.2 39 89.2C40.3333 88.4 41.8667 87.5333 43.6 86.6C45.4 85.6 47.1667 84.6667 48.9 83.8C50.7 82.8667 52.3667 82.0333 53.9 81.3C55.4333 80.5667 56.6667 80.0667 57.6 79.8ZM77.525 71.7C77.3917 72.3667 76.925 72.7333 76.125 72.8C75.325 72.8667 74.6583 72.9 74.125 72.9C72.4583 72.9667 70.725 73.1333 68.925 73.4C67.1917 73.6667 65.3583 74.0667 63.425 74.6C62.625 74.8667 61.7583 74.7667 60.825 74.3C59.8917 73.8333 59.325 72.9 59.125 71.5C59.125 70.9667 59.325 70.5333 59.725 70.2C60.125 69.8667 60.5917 69.5667 61.125 69.3C61.9917 68.9 63.025 68.5667 64.225 68.3C65.425 67.9667 66.625 67.7333 67.825 67.6C69.0917 67.4667 70.2917 67.4333 71.425 67.5C72.5583 67.5 73.4917 67.6 74.225 67.8C75.2917 68.1333 76.125 68.6333 76.725 69.3C77.3917 69.9667 77.6583 70.7667 77.525 71.7ZM75.225 105C75.6917 106.067 75.925 107.233 75.925 108.5C75.9917 109.7 75.6583 110.533 74.925 111C73.9917 111.6 72.9917 111.567 71.925 110.9C70.8583 110.233 70.0583 109.333 69.525 108.2C68.7917 106.8 68.225 105.1 67.825 103.1C67.425 101.033 67.125 99 66.925 97C66.725 95 66.5917 93.1333 66.525 91.4C66.525 89.6667 66.525 88.3667 66.525 87.5C66.5917 86.5667 66.8583 85.7 67.325 84.9C67.7917 84.1 68.3917 83.6333 69.125 83.5C70.325 83.5667 71.2917 84.1333 72.025 85.2C72.7583 86.2 73.0917 87.4667 73.025 89C73.025 90.2 73.0583 91.5333 73.125 93C73.1917 94.4667 73.325 95.9333 73.525 97.4C73.725 98.8667 73.9583 100.3 74.225 101.7C74.4917 103.033 74.825 104.133 75.225 105Z" fill="#F1C550"/>
</svg>
