<svg width="53" height="54" viewBox="0 0 53 54" fill="none" xmlns="http://www.w3.org/2000/svg">
<path fill-rule="evenodd" clip-rule="evenodd" d="M17.2 2H36.05C44.45 2 51.3 8.85 51.3 17.2V36.75C51.3 45.15 44.45 52 36.05 52H17.2C8.85 52 2 45.15 2 36.75V17.2C2 8.85 8.85 2 17.2 2Z" stroke="#FDFDFD" stroke-width="3"/>
<path fill-rule="evenodd" clip-rule="evenodd" d="M26.6494 14.7532C33.3994 14.7532 38.8994 20.2032 38.8994 27.0032C38.8994 33.7532 33.3994 39.2532 26.6494 39.2532C19.8494 39.2532 14.3994 33.7532 14.3994 27.0032C14.3994 20.2032 19.8494 14.7532 26.6494 14.7532Z" stroke="#FDFDFD" stroke-width="3"/>
<path fill-rule="evenodd" clip-rule="evenodd" d="M39.9509 11.2018C41.2009 11.2018 42.2509 12.2518 42.2509 13.5018C42.2509 14.7518 41.2009 15.7518 39.9509 15.7518C38.7009 15.7518 37.6509 14.7518 37.6509 13.5018C37.6509 12.2518 38.7009 11.2018 39.9509 11.2018Z" fill="#FDFDFD" stroke="#FDFDFD" stroke-width="3"/>
</svg>
